<?xml version="1.0" standalone="no"?>
<!DOCTYPE svg PUBLIC "-//W3C//DTD SVG 20010904//EN"
        "http://www.w3.org/TR/2001/REC-SVG-20010904/DTD/svg10.dtd">
<svg version="1.0" xmlns="http://www.w3.org/2000/svg"
     width="500" height="500" viewBox="0 0 162 49"
     preserveAspectRatio="xMidYMid meet">

    <g transform="translate(0,49) scale(0.200000,-0.200000)"
       fill="#000000" stroke="none">
        <path d="M48 340 l-47 -100 45 -95 c25 -52 47 -95 49 -95 3 0 11 12 19 27 13
25 12 32 -10 75 -13 26 -24 50 -24 53 0 3 22 5 49 5 38 0 50 4 54 18 2 9 8 25
12 35 6 15 0 17 -54 17 l-61 0 22 45 22 44 64 3 c61 3 64 4 77 36 l14 32 -92
0 -92 0 -47 -100z"/>

        <path d="M256 228 c-8 -13 -24 -44 -36 -70 -17 -38 -26 -48 -45 -48 -17 0 -29
-9 -40 -30 -8 -16 -15 -31 -15 -35 0 -3 25 -5 55 -5 50 0 55 2 61 25 3 14 10
25 14 25 4 0 11 -11 14 -25 5 -21 12 -25 41 -25 34 0 36 2 84 99 28 54 47 101
44 105 -4 3 -17 6 -29 6 -19 0 -29 -13 -55 -70 -18 -38 -36 -70 -40 -70 -5 0
-13 9 -19 21 -9 16 -7 30 9 65 26 55 26 54 -4 54 -14 0 -31 -9 -39 -22z"/>
    </g>
</svg>
